HIERARCHY
ROOT root
{
	OFFSET	0	13.1	24.9
	CHANNELS 6  Xposition Yposition Zposition Xrotation Yrotation Zrotation
	JOINT spine_1
	{
		OFFSET	0	9.99999	0
		CHANNELS 3  Xrotation Yrotation Zrotation
		JOINT spine_2
		{
			OFFSET	0	112	-10
			CHANNELS 3  Xrotation Yrotation Zrotation
			JOINT spine_3
			{
				OFFSET	0	206.5	19.3
				CHANNELS 3  Xrotation Yrotation Zrotation
				JOINT spine_4
				{
					OFFSET	0	110.4	14.6
					CHANNELS 3  Xrotation Yrotation Zrotation
					JOINT neck_1
					{
						OFFSET	0	71.8	-50.3
						CHANNELS 3  Xrotation Yrotation Zrotation
						JOINT neck_2
						{
							OFFSET	0	86.2	-25.8
							CHANNELS 3  Xrotation Yrotation Zrotation
							JOINT head_ee
							{
								OFFSET	0	179.8	-8.7
								CHANNELS 3  Xrotation Yrotation Zrotation
								End Site
								{
									OFFSET	1	0	0
								}
							}
						}
					}
					JOINT left_clavicle
					{
						OFFSET	-43.2	22.4	-70.8
						CHANNELS 3  Xrotation Yrotation Zrotation
						JOINT left_shoulder
						{
							OFFSET	-93.9	-5.79999	48.7
							CHANNELS 3  Xrotation Yrotation Zrotation
							JOINT left_elbow
							{
								OFFSET	-291.4	-30.8	15.2
								CHANNELS 3  Xrotation Yrotation Zrotation
								JOINT left_lowarm_twist
								{
									OFFSET	-110.7	-3.89999	13.6
									CHANNELS 3  Xrotation Yrotation Zrotation
									JOINT left_hand
									{
										OFFSET	-110.7	-3.89999	13.6
										CHANNELS 3  Xrotation Yrotation Zrotation
										JOINT left_ee
										{
											OFFSET	-80.8	-5.10001	12.1
											CHANNELS 3  Xrotation Yrotation Zrotation
											End Site
											{
												OFFSET	1	0	0
											}
										}
									}
								}
							}
						}
					}
					JOINT right_clavicle
					{
						OFFSET	43.2	22.4	-70.8
						CHANNELS 3  Xrotation Yrotation Zrotation
						JOINT right_shoulder
						{
							OFFSET	93.9	-5.79999	48.7
							CHANNELS 3  Xrotation Yrotation Zrotation
							JOINT right_elbow
							{
								OFFSET	291.4	-30.8	15.2
								CHANNELS 3  Xrotation Yrotation Zrotation
								JOINT right_lowarm_twist
								{
									OFFSET	110.7	-3.89999	13.6
									CHANNELS 3  Xrotation Yrotation Zrotation
									JOINT right_hand
									{
										OFFSET	110.7	-3.89999	13.6
										CHANNELS 3  Xrotation Yrotation Zrotation
										JOINT right_ee
										{
											OFFSET	80.8	-5.10001	12.1
											CHANNELS 3  Xrotation Yrotation Zrotation
											End Site
											{
												OFFSET	1	0	0
											}
										}
									}
								}
							}
						}
					}
				}
			}
		}
	}
	JOINT left_hip
	{
		OFFSET	-82.8	-127.5	0.300001
		CHANNELS 3  Xrotation Yrotation Zrotation
		JOINT left_knee
		{
			OFFSET	-28.2	-396.7	2.2
			CHANNELS 3  Xrotation Yrotation Zrotation
			JOINT left_ankle
			{
				OFFSET	-11.7	-411.3	35.4
				CHANNELS 3  Xrotation Yrotation Zrotation
				JOINT left_toes
				{
					OFFSET	0	-60	-88.6
					CHANNELS 3  Xrotation Yrotation Zrotation
					JOINT left_foot_ee
					{
						OFFSET	-22.5	-16.5	-42.2
						CHANNELS 3  Xrotation Yrotation Zrotation
						End Site
						{
							OFFSET	1	0	0
						}
					}
				}
			}
		}
	}
	JOINT right_hip
	{
		OFFSET	82.8	-127.5	0.300001
		CHANNELS 3  Xrotation Yrotation Zrotation
		JOINT right_knee
		{
			OFFSET	28.2	-396.7	2.2
			CHANNELS 3  Xrotation Yrotation Zrotation
			JOINT right_ankle
			{
				OFFSET	11.7	-411.3	35.4
				CHANNELS 3  Xrotation Yrotation Zrotation
				JOINT right_toes
				{
					OFFSET	0	-60	-88.6
					CHANNELS 3  Xrotation Yrotation Zrotation
					JOINT right_foot_ee
					{
						OFFSET	22.5	-16.5	-42.2
						CHANNELS 3  Xrotation Yrotation Zrotation
						End Site
						{
							OFFSET	1	0	0
						}
					}
				}
			}
		}
	}
}
MOTION
Frames: 13
Frame Time: 0.02
2740.32 696.056 -490.347 -179.543 -68.001 -170.468 1.24459 -0.961213 -5.59232 1.26177 -0.603992 -5.64194 1.32454 0.465216 -5.65503 1.2802 -0.432259 -5.65763 -8.87292 3.2352 9.14742 -8.63746 -0.304118 9.74513 -0.0 0.0 -0.0 9.24776 3.93234 17.9225 -28.8761 -29.171 73.7053 0.487883 -13.5871 0.058121 -8.05669 -0.352541 0.966925 0.682548 26.4352 14.3343 -0.0 0.0 -0.0 -1.43381 1.6164 3.00315 7.33811 7.81324 -65.8713 2.45536 50.5666 -1.1599 13.6562 -0.27755 1.71826 3.56681 8.53457 -20.9059 0.0 0.0 0.0 23.7739 -25.8417 -5.92509 4.40376 -0.206234 -0.644025 2.63789 29.0485 -0.410067 -28.6332 0.0 0.0 -0.0 0.0 -0.0 -15.4107 -15.1712 -12.4801 -12.8225 -0.312097 -1.93895 26.2413 21.584 3.93512 36.7154 -0.0 -0.0 0.0 0.0 0.0 
2770.29 689.547 -481.083 179.812 -67.4757 -169.735 1.24119 -1.01664 -5.87297 1.26014 -0.641536 -5.92551 1.33012 0.480976 -5.94064 1.28121 -0.461572 -5.94218 -7.16504 3.35788 7.89547 -6.99133 0.544456 8.56776 -0.0 0.0 -0.0 9.4796 3.48542 18.4083 -28.6525 -29.1553 73.8696 0.450681 -12.5853 0.0496975 -8.02829 -0.351061 0.963608 0.850066 26.5451 15.3358 -0.0 0.0 -0.0 -1.70848 1.20605 3.48261 6.28049 7.71039 -66.4383 2.30494 48.7809 -1.04521 12.9046 -0.27299 1.62237 3.38765 6.0732 -20.7239 0.0 0.0 0.0 23.5011 -25.5532 -6.56941 -0.664752 0.0268005 0.098493 3.23379 28.9882 -0.501787 -28.1257 0.0 0.0 -0.0 0.0 -0.0 -17.8779 -14.0989 -13.8967 -13.9147 -0.318489 -2.1064 28.069 21.8418 4.16973 36.4138 -0.0 -0.0 0.0 0.0 0.0 
2806.43 688.315 -473.933 179.267 -67.0487 -169.909 1.24982 -1.11378 -6.16932 1.27069 -0.719732 -6.22737 1.35294 0.458064 -6.25197 1.29884 -0.53309 -6.24605 -4.48314 3.33913 6.76079 -4.35802 0.978849 7.47661 -0.0 0.0 -0.0 9.98571 3.45654 19.4206 -27.756 -29.3349 74.5285 0.45325 -12.6548 0.0502589 -7.87762 -0.343237 0.945997 0.959162 26.7029 16.0156 -0.0 0.0 -0.0 -1.72674 1.27987 3.52941 4.68871 7.47264 -65.8499 2.03867 45.2769 -0.850295 12.0588 -0.266355 1.51455 3.25167 4.23296 -20.5448 0.0 0.0 0.0 22.4468 -25.0346 -6.46841 -2.70465 0.101873 0.402536 2.19833 29.1229 -0.342256 -28.0787 0.0 0.0 -0.0 0.0 -0.0 -18.4118 -12.1773 -13.4686 -15.0819 -0.321789 -2.28545 27.0816 21.7837 4.04688 36.3245 -0.0 -0.0 0.0 0.0 0.0 
2832.82 685.105 -467.398 -179.885 -66.8495 -168.605 1.33069 -0.963286 -6.14244 1.35148 -0.571243 -6.19103 1.41646 0.591079 -6.18917 1.36327 -0.391866 -6.20491 -3.33534 3.6816 6.14648 -3.2343 1.93186 6.91922 -0.0 0.0 -0.0 10.4655 3.26574 20.4015 -27.8661 -29.2223 72.9043 0.457802 -12.7777 0.0512609 -7.73291 -0.335765 0.929065 0.902806 25.8377 15.4258 -0.0 0.0 -0.0 -1.98063 0.836387 3.96008 2.869 7.25811 -65.6197 1.83118 42.2075 -0.706783 12.9249 -0.273129 1.62496 3.41872 2.97369 -22.2891 0.0 0.0 0.0 23.6266 -23.1852 -6.38211 -5.3752 0.183695 0.804181 -1.14324 29.5058 0.179739 -28.3358 0.0 0.0 -0.0 0.0 -0.0 -18.7804 -10.3257 -14.0268 -15.5152 -0.322086 -2.35194 25.6805 22.2043 3.88727 37.0787 -0.0 -0.0 0.0 0.0 0.0 
2852.61 685.679 -463.175 178.881 -66.212 -169.596 1.19675 -0.871848 -6.1162 1.21742 -0.481647 -6.15906 1.27302 0.689071 -6.13939 1.22058 -0.287273 -6.17114 -3.7373 3.27611 8.69998 -3.52411 -0.736362 9.49323 -0.0 0.0 -0.0 10.4161 3.04294 20.3183 -26.6595 -29.8465 72.0379 0.570996 -15.794 0.0792022 -5.48739 -0.22536 0.664002 0.852917 25.7498 15.1075 -0.0 0.0 -0.0 -2.05865 3.10626 4.4614 1.27084 6.33704 -66.6847 1.5822 38.0856 -0.546147 15.6518 -0.283551 1.97307 3.02212 2.488 -19.6345 0.0 0.0 0.0 24.0153 -21.9487 -6.07083 -10.2453 0.284374 1.54452 7.25056 29.2442 -1.11533 -26.2015 0.0 0.0 -0.0 0.0 -0.0 -18.2502 -9.13697 -13.5156 -19.3793 -0.302507 -2.94437 21.7043 20.1099 3.29997 38.3071 -0.0 -0.0 0.0 0.0 0.0 
2872.44 684.419 -466.449 179.64 -71.337 -169.9 1.38379 -1.1489 -5.80024 1.40215 -0.77814 -5.86131 1.48482 0.317991 -5.90403 1.43674 -0.616781 -5.88041 -2.04737 3.13977 7.78204 -1.87787 -0.510926 8.59829 -0.0 0.0 -0.0 10.6048 1.64625 20.8051 -22.7633 -27.4772 72.914 0.691478 -18.9083 0.115146 -11.5029 -0.544262 1.36383 -0.353547 26.2617 8.38614 -0.0 0.0 -0.0 -2.32337 -0.548093 4.40939 -0.11686 6.17836 -66.0919 1.46319 35.9331 -0.474497 17.8829 -0.27975 2.25799 2.46193 2.02699 -15.8699 0.0 0.0 0.0 26.4241 -21.4932 -1.68219 -13.9031 0.318438 2.10463 12.0431 28.6584 -1.81893 -32.2389 0.0 0.0 -0.0 0.0 -0.0 -13.832 -5.50904 -13.9083 -25.9746 -0.177083 -3.94811 20.2331 12.6254 2.93092 40.1349 -0.0 -0.0 0.0 0.0 0.0 
2894.67 691.473 -464.246 -179.574 -73.0064 -169.227 1.50134 -1.21289 -5.85996 1.52005 -0.83822 -5.92494 1.60929 0.257378 -5.97822 1.56012 -0.688295 -5.94416 -1.93441 1.45698 7.27653 -1.77017 -3.15734 7.85783 -0.0 0.0 -0.0 10.9011 3.55046 21.2629 -22.0708 -29.8968 70.6382 0.844233 -22.6949 0.169424 -9.27851 -0.417769 1.10894 -0.0467152 27.0436 10.3962 -0.0 0.0 -0.0 -2.66676 -3.41408 4.58779 -0.249309 5.51014 -66.2316 1.21709 31.0851 -0.338515 18.8225 -0.27483 2.37791 2.73386 6.62973 -15.8355 0.0 0.0 0.0 25.706 -22.1425 -0.391631 -13.3596 0.315639 2.02129 11.2044 28.791 -1.69829 -34.9922 0.0 0.0 -0.0 0.0 -0.0 -7.75278 0.612229 -12.996 -32.5384 0.0615009 -4.92664 15.3202 13.0981 2.28005 39.6055 -0.0 -0.0 0.0 0.0 0.0 
2915.31 700.679 -461.003 -177.823 -73.6108 -167.885 1.43827 -1.19639 -5.82671 1.45677 -0.823856 -5.89072 1.54434 0.272073 -5.94165 1.49573 -0.668038 -5.91035 -0.368545 1.46813 8.20265 -0.15039 -4.06879 8.96509 -0.0 0.0 -0.0 10.9272 4.11457 21.2654 -19.7967 -27.8147 70.6915 0.891479 -23.8266 0.188083 -12.4692 -0.602283 1.47301 -0.9874 28.1804 5.63979 -0.0 0.0 -0.0 -2.38689 -3.59292 4.0309 -2.71953 5.58845 -65.7401 1.13356 29.3147 -0.296492 17.7154 -0.280421 2.23661 2.31965 4.41755 -13.8891 0.0 0.0 0.0 25.9352 -21.7409 0.272429 -15.1733 0.321894 2.29948 15.1912 27.2545 -2.24949 -35.3613 0.0 0.0 -0.0 0.0 -0.0 -5.45791 0.419095 -11.2747 -33.9111 0.125501 -5.12754 11.0654 13.4857 1.68166 39.7354 -0.0 -0.0 0.0 0.0 0.0 
2939.82 711.397 -454.93 -176.506 -73.4641 -167.165 1.56602 -1.1352 -5.9817 1.5856 -0.752984 -6.04151 1.66713 0.356851 -6.07765 1.61613 -0.605675 -6.05799 0.187722 -0.577759 8.42777 0.477606 -7.95218 9.05982 -0.0 0.0 -0.0 11.1388 4.05304 21.7012 -17.3122 -26.8757 71.2624 0.877505 -23.4939 0.182476 -12.8561 -0.626032 1.51645 -1.25231 26.7712 3.59017 -0.0 0.0 -0.0 -2.62252 -6.1319 4.03436 -4.47487 6.8805 -65.3666 0.96088 25.4536 -0.217021 18.5455 -0.276485 2.34256 2.6311 10.0069 -13.6292 0.0 0.0 0.0 24.3057 -22.41 0.71276 -15.7893 0.322014 2.39399 21.843 27.4069 -3.15459 -39.161 0.0 0.0 -0.0 0.0 -0.0 -2.50492 3.46796 -9.81621 -35.9357 0.228647 -5.42094 6.60685 14.3311 1.02719 39.1877 -0.0 -0.0 0.0 0.0 0.0 
2954.63 715.8 -449.044 -176.157 -72.2912 -166.989 1.50924 -0.93343 -5.9688 1.52887 -0.552432 -6.01587 1.58898 0.558733 -6.01529 1.53875 -0.396505 -6.02811 -0.45906 -0.661938 8.55283 -0.166056 -8.14171 9.11321 -0.0 0.0 -0.0 10.9287 2.92235 21.3729 -15.5476 -25.9232 71.7295 0.936451 -24.8857 0.206631 -13.2844 -0.652663 1.56435 -1.69932 24.8975 0.254253 -0.0 0.0 -0.0 -2.44543 -6.96146 3.56888 -5.36688 7.21992 -65.7688 0.819263 22.0891 -0.159912 19.2351 -0.272049 2.43054 2.24274 9.80181 -11.0397 0.0 0.0 0.0 24.6567 -22.9662 0.967807 -19.0381 0.305844 2.89212 27.6566 26.4451 -3.86566 -40.222 0.0 0.0 -0.0 0.0 -0.0 -0.0538657 5.71881 -9.73273 -37.2316 0.300105 -5.60681 3.00871 11.9743 0.465749 39.0197 -0.0 -0.0 0.0 0.0 0.0 
2964.35 715.853 -444.383 -172.654 -73.1239 -162.849 1.72841 -0.882759 -5.981 1.74816 -0.501091 -6.02483 1.80168 0.588721 -6.01693 1.75139 -0.367146 -6.03444 0.423934 -1.23604 7.19004 0.658737 -8.11885 7.67367 -0.0 0.0 -0.0 10.8145 1.8767 21.2208 -13.4149 -25.3449 71.506 1.14367 -29.5324 0.301459 -12.2549 -0.589256 1.44888 -2.1222 23.4506 -2.84398 -0.0 0.0 -0.0 -2.901 -10.349 3.7702 -7.11582 8.46166 -65.7566 0.899429 24.0151 -0.191307 20.2311 -0.263773 2.55747 2.41351 10.1943 -12.0412 0.0 0.0 0.0 22.7205 -22.9019 -0.51523 -14.2527 0.319819 2.15824 30.9171 26.7872 -4.2599 -40.0701 0.0 0.0 -0.0 0.0 -0.0 0.944466 5.47386 -11.4517 -35.5986 0.210752 -5.37234 -0.988803 13.102 -0.155944 37.1532 -0.0 -0.0 0.0 0.0 0.0 
2981.8 720.169 -442.202 -173.376 -72.7457 -163.613 1.80496 -0.924737 -5.77327 1.82332 -0.556133 -5.82019 1.88032 0.489362 -5.82617 1.83325 -0.435306 -5.83044 0.957143 -2.51816 6.65217 1.21111 -9.97297 7.02871 -0.0 0.0 -0.0 10.5422 2.58293 20.6095 -11.7554 -25.7727 72.0762 1.31648 -33.1086 0.391331 -11.7389 -0.558259 1.39058 -2.25859 22.8227 -3.94292 -0.0 0.0 -0.0 -2.93038 -10.5334 3.78669 -9.91112 10.0443 -65.8591 0.807735 21.8076 -0.155603 20.9522 -0.256404 2.6493 2.64838 10.8568 -13.3668 0.0 0.0 0.0 19.9165 -22.7568 -0.617282 -11.7448 0.302663 1.77386 32.7237 26.512 -4.45735 -40.1661 0.0 0.0 -0.0 0.0 -0.0 2.40772 5.86324 -10.9369 -35.2811 0.19416 -5.32647 -5.04404 14.0531 -0.808375 35.9345 -0.0 -0.0 0.0 0.0 0.0 
2998.6 722.404 -434.601 -175.431 -70.7332 -165.318 1.79167 -0.874476 -5.92867 1.81108 -0.496136 -5.97209 1.86327 0.577675 -5.96478 1.81385 -0.369865 -5.98121 0.239792 -3.19034 6.45968 0.495907 -10.9738 6.67119 -0.0 0.0 -0.0 10.2642 2.28363 20.0639 -10.7522 -25.9957 72.2048 1.44453 -35.5846 0.463596 -11.1817 -0.525383 1.32732 -2.37999 22.0343 -5.04897 -0.0 0.0 -0.0 -3.21085 -12.3204 3.92407 -11.3094 11.5509 -64.916 0.859174 23.0548 -0.175232 21.7876 -0.246424 2.75553 2.76664 11.8929 -13.714 0.0 0.0 0.0 17.2897 -22.9291 -1.76681 -11.3496 0.298426 1.71338 37.4191 26.1814 -4.95037 -40.2833 0.0 0.0 -0.0 0.0 -0.0 2.55613 6.01709 -10.1053 -35.4207 0.201426 -5.34665 -7.80891 14.786 -1.2649 34.5303 -0.0 -0.0 0.0 0.0 0.0 
